<mxfile host="app.diagrams.net" agent="Mozilla/5.0 (Windows NT 10.0; Win64; x64) AppleWebKit/537.36 (KHTML, like Gecko) Chrome/131.0.0.0 Safari/537.36" version="26.0.9">
  <diagram name="Pagina-1" id="cqG59qKS1jsYye_PuRFp">
    <mxGraphModel dx="1050" dy="522" grid="1" gridSize="10" guides="1" tooltips="1" connect="1" arrows="1" fold="1" page="1" pageScale="1" pageWidth="827" pageHeight="1169" math="0" shadow="0">
      <root>
        <mxCell id="0" />
        <mxCell id="1" parent="0" />
        <mxCell id="TuM16gSYmS0Ap3ad7Hwd-37" style="edgeStyle=orthogonalEdgeStyle;rounded=0;orthogonalLoop=1;jettySize=auto;html=1;exitX=0.5;exitY=1;exitDx=0;exitDy=0;entryX=0.5;entryY=0;entryDx=0;entryDy=0;" edge="1" parent="1" source="TuM16gSYmS0Ap3ad7Hwd-1" target="TuM16gSYmS0Ap3ad7Hwd-17">
          <mxGeometry relative="1" as="geometry" />
        </mxCell>
        <mxCell id="TuM16gSYmS0Ap3ad7Hwd-1" value="START" style="ellipse;whiteSpace=wrap;html=1;" vertex="1" parent="1">
          <mxGeometry x="354" y="20" width="120" height="80" as="geometry" />
        </mxCell>
        <mxCell id="TuM16gSYmS0Ap3ad7Hwd-5" value="" style="edgeStyle=orthogonalEdgeStyle;rounded=0;orthogonalLoop=1;jettySize=auto;html=1;" edge="1" parent="1" source="TuM16gSYmS0Ap3ad7Hwd-2" target="TuM16gSYmS0Ap3ad7Hwd-4">
          <mxGeometry relative="1" as="geometry" />
        </mxCell>
        <mxCell id="TuM16gSYmS0Ap3ad7Hwd-2" value="READ D1" style="shape=parallelogram;perimeter=parallelogramPerimeter;whiteSpace=wrap;html=1;fixedSize=1;" vertex="1" parent="1">
          <mxGeometry x="354" y="240" width="120" height="60" as="geometry" />
        </mxCell>
        <mxCell id="TuM16gSYmS0Ap3ad7Hwd-36" style="edgeStyle=orthogonalEdgeStyle;rounded=0;orthogonalLoop=1;jettySize=auto;html=1;exitX=0.5;exitY=1;exitDx=0;exitDy=0;entryX=0.5;entryY=0;entryDx=0;entryDy=0;" edge="1" parent="1" source="TuM16gSYmS0Ap3ad7Hwd-4" target="TuM16gSYmS0Ap3ad7Hwd-6">
          <mxGeometry relative="1" as="geometry" />
        </mxCell>
        <mxCell id="TuM16gSYmS0Ap3ad7Hwd-4" value="READ D2" style="shape=parallelogram;perimeter=parallelogramPerimeter;whiteSpace=wrap;html=1;fixedSize=1;" vertex="1" parent="1">
          <mxGeometry x="354" y="380" width="120" height="60" as="geometry" />
        </mxCell>
        <mxCell id="TuM16gSYmS0Ap3ad7Hwd-9" value="" style="edgeStyle=orthogonalEdgeStyle;rounded=0;orthogonalLoop=1;jettySize=auto;html=1;" edge="1" parent="1" source="TuM16gSYmS0Ap3ad7Hwd-6" target="TuM16gSYmS0Ap3ad7Hwd-8">
          <mxGeometry relative="1" as="geometry" />
        </mxCell>
        <mxCell id="TuM16gSYmS0Ap3ad7Hwd-6" value="S = D1 + D2" style="whiteSpace=wrap;html=1;" vertex="1" parent="1">
          <mxGeometry x="354" y="470" width="120" height="60" as="geometry" />
        </mxCell>
        <mxCell id="TuM16gSYmS0Ap3ad7Hwd-11" value="" style="edgeStyle=orthogonalEdgeStyle;rounded=0;orthogonalLoop=1;jettySize=auto;html=1;" edge="1" parent="1" source="TuM16gSYmS0Ap3ad7Hwd-8" target="TuM16gSYmS0Ap3ad7Hwd-10">
          <mxGeometry relative="1" as="geometry" />
        </mxCell>
        <mxCell id="TuM16gSYmS0Ap3ad7Hwd-12" value="TRUE" style="edgeLabel;html=1;align=center;verticalAlign=middle;resizable=0;points=[];" vertex="1" connectable="0" parent="TuM16gSYmS0Ap3ad7Hwd-11">
          <mxGeometry x="-0.396" relative="1" as="geometry">
            <mxPoint as="offset" />
          </mxGeometry>
        </mxCell>
        <mxCell id="TuM16gSYmS0Ap3ad7Hwd-14" value="" style="edgeStyle=orthogonalEdgeStyle;rounded=0;orthogonalLoop=1;jettySize=auto;html=1;" edge="1" parent="1" source="TuM16gSYmS0Ap3ad7Hwd-8" target="TuM16gSYmS0Ap3ad7Hwd-13">
          <mxGeometry relative="1" as="geometry" />
        </mxCell>
        <mxCell id="TuM16gSYmS0Ap3ad7Hwd-20" value="FALSE" style="edgeLabel;html=1;align=center;verticalAlign=middle;resizable=0;points=[];" vertex="1" connectable="0" parent="TuM16gSYmS0Ap3ad7Hwd-14">
          <mxGeometry x="-0.105" y="-1" relative="1" as="geometry">
            <mxPoint as="offset" />
          </mxGeometry>
        </mxCell>
        <mxCell id="TuM16gSYmS0Ap3ad7Hwd-8" value="D1 % 2 == 0&lt;div&gt;AND&lt;/div&gt;&lt;div&gt;D2 % 2 == 0&lt;/div&gt;&lt;div&gt;AND&lt;/div&gt;&lt;div&gt;AND S == 8&lt;/div&gt;" style="rhombus;whiteSpace=wrap;html=1;" vertex="1" parent="1">
          <mxGeometry x="280" y="600" width="270" height="100" as="geometry" />
        </mxCell>
        <mxCell id="TuM16gSYmS0Ap3ad7Hwd-27" style="edgeStyle=orthogonalEdgeStyle;rounded=0;orthogonalLoop=1;jettySize=auto;html=1;exitX=0.5;exitY=1;exitDx=0;exitDy=0;entryX=0;entryY=0.5;entryDx=0;entryDy=0;" edge="1" parent="1" source="TuM16gSYmS0Ap3ad7Hwd-10" target="TuM16gSYmS0Ap3ad7Hwd-26">
          <mxGeometry relative="1" as="geometry" />
        </mxCell>
        <mxCell id="TuM16gSYmS0Ap3ad7Hwd-10" value="WRITE &quot; GIOCATORE VINCE PUNTEGGIO = 100&quot;" style="shape=parallelogram;perimeter=parallelogramPerimeter;whiteSpace=wrap;html=1;fixedSize=1;" vertex="1" parent="1">
          <mxGeometry x="317.5" y="800" width="195" height="60" as="geometry" />
        </mxCell>
        <mxCell id="TuM16gSYmS0Ap3ad7Hwd-16" value="" style="edgeStyle=orthogonalEdgeStyle;rounded=0;orthogonalLoop=1;jettySize=auto;html=1;" edge="1" parent="1" source="TuM16gSYmS0Ap3ad7Hwd-13" target="TuM16gSYmS0Ap3ad7Hwd-15">
          <mxGeometry relative="1" as="geometry" />
        </mxCell>
        <mxCell id="TuM16gSYmS0Ap3ad7Hwd-21" value="TRUE" style="edgeLabel;html=1;align=center;verticalAlign=middle;resizable=0;points=[];" vertex="1" connectable="0" parent="TuM16gSYmS0Ap3ad7Hwd-16">
          <mxGeometry x="-0.304" y="-3" relative="1" as="geometry">
            <mxPoint as="offset" />
          </mxGeometry>
        </mxCell>
        <mxCell id="TuM16gSYmS0Ap3ad7Hwd-23" value="" style="edgeStyle=orthogonalEdgeStyle;rounded=0;orthogonalLoop=1;jettySize=auto;html=1;" edge="1" parent="1" source="TuM16gSYmS0Ap3ad7Hwd-13" target="TuM16gSYmS0Ap3ad7Hwd-22">
          <mxGeometry relative="1" as="geometry" />
        </mxCell>
        <mxCell id="TuM16gSYmS0Ap3ad7Hwd-24" value="FALSE" style="edgeLabel;html=1;align=center;verticalAlign=middle;resizable=0;points=[];" vertex="1" connectable="0" parent="TuM16gSYmS0Ap3ad7Hwd-23">
          <mxGeometry x="-0.2774" y="-2" relative="1" as="geometry">
            <mxPoint as="offset" />
          </mxGeometry>
        </mxCell>
        <mxCell id="TuM16gSYmS0Ap3ad7Hwd-13" value="(D1 OR D2 == 6)&lt;div&gt;OR&amp;nbsp;&lt;/div&gt;&lt;div&gt;S = 7&lt;/div&gt;" style="rhombus;whiteSpace=wrap;html=1;" vertex="1" parent="1">
          <mxGeometry x="630" y="600" width="270" height="100" as="geometry" />
        </mxCell>
        <mxCell id="TuM16gSYmS0Ap3ad7Hwd-28" style="edgeStyle=orthogonalEdgeStyle;rounded=0;orthogonalLoop=1;jettySize=auto;html=1;exitX=0.5;exitY=1;exitDx=0;exitDy=0;entryX=0.5;entryY=0;entryDx=0;entryDy=0;" edge="1" parent="1" source="TuM16gSYmS0Ap3ad7Hwd-15" target="TuM16gSYmS0Ap3ad7Hwd-26">
          <mxGeometry relative="1" as="geometry" />
        </mxCell>
        <mxCell id="TuM16gSYmS0Ap3ad7Hwd-15" value="PUNTEGGIO += 10" style="whiteSpace=wrap;html=1;" vertex="1" parent="1">
          <mxGeometry x="705" y="800" width="120" height="60" as="geometry" />
        </mxCell>
        <mxCell id="TuM16gSYmS0Ap3ad7Hwd-38" style="edgeStyle=orthogonalEdgeStyle;rounded=0;orthogonalLoop=1;jettySize=auto;html=1;exitX=0.5;exitY=1;exitDx=0;exitDy=0;entryX=0.5;entryY=0;entryDx=0;entryDy=0;" edge="1" parent="1" source="TuM16gSYmS0Ap3ad7Hwd-17" target="TuM16gSYmS0Ap3ad7Hwd-2">
          <mxGeometry relative="1" as="geometry" />
        </mxCell>
        <mxCell id="TuM16gSYmS0Ap3ad7Hwd-17" value="PUNTEGGIO = 0" style="whiteSpace=wrap;html=1;" vertex="1" parent="1">
          <mxGeometry x="354" y="140" width="120" height="60" as="geometry" />
        </mxCell>
        <mxCell id="TuM16gSYmS0Ap3ad7Hwd-29" style="edgeStyle=orthogonalEdgeStyle;rounded=0;orthogonalLoop=1;jettySize=auto;html=1;exitX=0.5;exitY=1;exitDx=0;exitDy=0;entryX=1;entryY=0.5;entryDx=0;entryDy=0;" edge="1" parent="1" source="TuM16gSYmS0Ap3ad7Hwd-22" target="TuM16gSYmS0Ap3ad7Hwd-26">
          <mxGeometry relative="1" as="geometry" />
        </mxCell>
        <mxCell id="TuM16gSYmS0Ap3ad7Hwd-22" value="PUNTEGGIO = 0" style="whiteSpace=wrap;html=1;" vertex="1" parent="1">
          <mxGeometry x="1055" y="620" width="120" height="60" as="geometry" />
        </mxCell>
        <mxCell id="TuM16gSYmS0Ap3ad7Hwd-32" style="edgeStyle=orthogonalEdgeStyle;rounded=0;orthogonalLoop=1;jettySize=auto;html=1;exitX=0.5;exitY=1;exitDx=0;exitDy=0;entryX=0.5;entryY=0;entryDx=0;entryDy=0;" edge="1" parent="1" source="TuM16gSYmS0Ap3ad7Hwd-25" target="TuM16gSYmS0Ap3ad7Hwd-31">
          <mxGeometry relative="1" as="geometry" />
        </mxCell>
        <mxCell id="TuM16gSYmS0Ap3ad7Hwd-25" value="WRITE PUNTEGGIO" style="shape=parallelogram;perimeter=parallelogramPerimeter;whiteSpace=wrap;html=1;fixedSize=1;" vertex="1" parent="1">
          <mxGeometry x="685" y="1070" width="160" height="60" as="geometry" />
        </mxCell>
        <mxCell id="TuM16gSYmS0Ap3ad7Hwd-30" style="edgeStyle=orthogonalEdgeStyle;rounded=0;orthogonalLoop=1;jettySize=auto;html=1;exitX=0.5;exitY=1;exitDx=0;exitDy=0;" edge="1" parent="1" source="TuM16gSYmS0Ap3ad7Hwd-26" target="TuM16gSYmS0Ap3ad7Hwd-25">
          <mxGeometry relative="1" as="geometry" />
        </mxCell>
        <mxCell id="TuM16gSYmS0Ap3ad7Hwd-33" value="TRUE" style="edgeLabel;html=1;align=center;verticalAlign=middle;resizable=0;points=[];" vertex="1" connectable="0" parent="TuM16gSYmS0Ap3ad7Hwd-30">
          <mxGeometry x="-0.3533" relative="1" as="geometry">
            <mxPoint as="offset" />
          </mxGeometry>
        </mxCell>
        <mxCell id="TuM16gSYmS0Ap3ad7Hwd-34" style="edgeStyle=orthogonalEdgeStyle;rounded=0;orthogonalLoop=1;jettySize=auto;html=1;exitX=0;exitY=1;exitDx=0;exitDy=0;entryX=0;entryY=0.5;entryDx=0;entryDy=0;" edge="1" parent="1" source="TuM16gSYmS0Ap3ad7Hwd-26" target="TuM16gSYmS0Ap3ad7Hwd-2">
          <mxGeometry relative="1" as="geometry">
            <Array as="points">
              <mxPoint x="725" y="1040" />
              <mxPoint x="200" y="1040" />
              <mxPoint x="200" y="270" />
            </Array>
          </mxGeometry>
        </mxCell>
        <mxCell id="TuM16gSYmS0Ap3ad7Hwd-35" value="FALSE" style="edgeLabel;html=1;align=center;verticalAlign=middle;resizable=0;points=[];" vertex="1" connectable="0" parent="TuM16gSYmS0Ap3ad7Hwd-34">
          <mxGeometry x="-0.8531" relative="1" as="geometry">
            <mxPoint as="offset" />
          </mxGeometry>
        </mxCell>
        <mxCell id="TuM16gSYmS0Ap3ad7Hwd-26" value="PUNTEGGIO == 100" style="rhombus;whiteSpace=wrap;html=1;" vertex="1" parent="1">
          <mxGeometry x="685" y="930" width="160" height="80" as="geometry" />
        </mxCell>
        <mxCell id="TuM16gSYmS0Ap3ad7Hwd-31" value="END" style="ellipse;whiteSpace=wrap;html=1;" vertex="1" parent="1">
          <mxGeometry x="705" y="1190" width="120" height="80" as="geometry" />
        </mxCell>
      </root>
    </mxGraphModel>
  </diagram>
</mxfile>
